<svg width="537" height="260" viewBox="0 0 537 260" fill="none" xmlns="http://www.w3.org/2000/svg">
<path d="M262.58 80.0252C262.58 80.0252 196.627 56.855 180.593 104.988C180.593 104.988 171.668 140.633 134.246 147.779C134.246 147.779 105.726 154.949 41.5534 208.387L89.6801 135.292L105.726 129.938H87.8999C73.1604 121.497 59.4001 111.45 46.8702 99.9809L78.9866 103.195L35.424 88.6646C23.476 75.8786 12.4599 60.4757 6.06768 42.9218C5.86456 42.3602 5.66146 41.7986 5.48224 41.2369C5.30302 40.6753 5.0999 40.1137 4.92068 39.5401C3.74234 35.9504 2.78861 32.2907 2.06508 28.5824C2.05828 28.4949 2.05828 28.407 2.06508 28.3195C0.523434 20.703 0.00112363 12.9154 0.511845 5.16129C0.511845 5.16129 5.58977 8.22037 13.8459 13.1555C30.4537 27.5547 63.2869 51.2865 117.794 72.234C124.365 75.5919 130.005 78.2925 134.222 80.0252H143.136C143.136 80.0252 143.315 79.6905 143.673 79.105C147.497 72.724 171.584 36.5766 209.089 67.5618C209.113 67.5618 250.107 69.3423 262.58 80.0252Z" fill="white"/>
<path d="M152.258 84.2313L86.2427 91.9355L40.6786 80.4989L35.3836 88.873C22.2659 76.0226 12.2255 60.3665 6.01552 43.0787C5.81232 42.5164 5.60913 41.9542 5.42984 41.3919C5.25055 40.8296 5.04735 40.2674 4.86806 39.6931C3.71628 36.0914 2.76259 32.4293 2.01132 28.7231C2.00452 28.6355 2.00452 28.5475 2.01132 28.4599C0.105642 19.1009 -0.449805 9.51679 0.361865 0C4.53792 4.77085 9.07333 9.21415 13.9283 13.2908C30.5427 27.7062 63.389 51.4647 117.918 72.4358C124.826 75.0916 132.082 77.6916 139.684 80.2357C143.748 81.5995 147.939 82.9313 152.258 84.2313Z" fill="white"/>
<path d="M42.2696 45.7982C42.2696 45.7982 27.401 25.5754 33.903 5.16129C33.903 5.16129 110.863 80.4592 162.58 80.4592L125.17 98.0645L49.0704 70.1446L42.2696 45.7982Z" fill="white"/>
<path d="M212.514 166.172C212.454 166.889 212.395 168.564 212.395 169.568C212.395 184.04 220.203 193.824 236.273 193.824C249.465 193.824 255.793 189.614 260.986 181.756H289.532C282.225 199.457 266.06 215.161 233.945 215.161C200.516 215.161 185.162 194.267 185.162 167.511C185.162 137.802 205.458 104.516 248.14 104.516C281.939 104.516 296.445 124.777 296.445 149.104C296.541 154.883 295.735 160.642 294.057 166.172H212.514ZM270.024 148.231C270.024 147.884 270.084 146.76 270.084 145.6C270.084 133.52 262.92 124.598 246.552 124.598C230.184 124.598 220.167 134.166 216.526 148.231H270.024Z" fill="white"/>
<path d="M302.091 212.258L319.964 127.955H301.936L306.332 107.485H324.372L326.767 96.2948C331.607 73.0424 343.226 58.3888 368.801 58.3888C373.976 58.3529 379.139 58.8937 384.194 60.001L379.282 80.7574C376.684 80.228 374.04 79.948 371.388 79.9214C361.039 79.9811 357.289 85.1761 354.762 96.4142L352.282 107.485H374.287L369.879 127.955H347.886L330.026 212.258H302.091Z" fill="white"/>
<path d="M360 212.258L392.226 59.6774H419.677L387.452 212.258H360Z" fill="white"/>
<path d="M446.657 107.419C455.282 151.382 459.78 180.293 461.14 191.499H461.629C467.176 180.747 482.422 151.956 506.306 107.419H536.13L479.094 206.575C454.745 249.356 446.526 260 417.608 260C411.37 259.893 405.155 259.233 399.033 258.029L404.199 235.115C408.478 235.896 412.817 236.296 417.166 236.31C428.786 236.31 435.061 231.03 442.589 218.474L418.359 107.479L446.657 107.419Z" fill="white"/>
</svg>
